<svg xmlns="http://www.w3.org/2000/svg" version="1.1" xmlns:xlink="http://www.w3.org/1999/xlink" xmlns:svgjs="http://svgjs.dev/svgjs" width="2000" height="318" viewBox="0 0 2000 318"><g transform="matrix(1,0,0,1,-1.071771024382997,-1.0141829467570176)"><svg viewBox="0 0 396 63" data-background-color="#ffffff" preserveAspectRatio="xMidYMid meet" height="318" width="2000" xmlns="http://www.w3.org/2000/svg" xmlns:xlink="http://www.w3.org/1999/xlink"><g id="tight-bounds" transform="matrix(1,0,0,1,0.21221066282782886,0.2009230366216741)"><svg viewBox="0 0 395.52 62.598153926756666" height="62.598153926756666" width="395.52"><g><svg viewBox="0 0 485.48148647768016 76.83617723280861" height="62.598153926756666" width="395.52"><g transform="matrix(1,0,0,1,0,10.619182236951119)"><svg viewBox="0 0 395.52 55.59781275890637" height="55.59781275890637" width="395.52"><g id="textblocktransform"><svg viewBox="0 0 395.52 55.59781275890637" height="55.59781275890637" width="395.52" id="textblock"><g><svg viewBox="0 0 395.52 55.59781275890637" height="55.59781275890637" width="395.52"><g transform="matrix(1,0,0,1,0,0)"><svg width="395.52" viewBox="0.4 -24.75 181.04 25.45" height="55.59781275890637" data-palette-color="#000000"><path d="M25.35-18.95L25.35-18.95Q25.35-17.25 24.78-15.65 24.2-14.05 23.65-13.3L23.65-13.3 23.1-12.6 15.55-12.6Q16.8-13.75 16.8-15.45L16.8-15.45Q16.8-16.35 16.23-16.93 15.65-17.5 14.65-17.5L14.65-17.5Q12.95-17.5 11.7-15.8L11.7-15.8 8.9 0 0.4 0 4.65-24.05 12.55-24.05 11.95-20.7Q14.8-24.75 18.85-24.75L18.85-24.75Q22.1-24.75 23.73-23.2 25.35-21.65 25.35-18.95ZM41.75-24.75L41.75-24.75Q47.15-24.75 49.9-22.4L49.9-22.4Q52.05-20.55 52.05-17.25L52.05-17.25Q52.05-16.15 51.8-14.85L51.8-14.85 50.75-9Q49.8-3.7 46.32-1.5 42.85 0.7 37.05 0.7 31.25 0.7 28.55-1.5L28.55-1.5Q26.55-3.15 26.55-6.45L26.55-6.45Q26.55-7.6 26.8-9L26.8-9 27.85-14.85Q29.6-24.75 41.75-24.75ZM42.45-10.1L43.1-13.85Q43.2-14.35 43.2-15.13 43.2-15.9 42.55-16.85 41.9-17.8 40.27-17.8 38.65-17.8 37.55-16.73 36.45-15.65 36.15-13.85L36.15-13.85 35.5-10.1Q35.4-9.6 35.4-8.83 35.4-8.05 36.05-7.15 36.7-6.25 38.32-6.25 39.95-6.25 41.05-7.38 42.15-8.5 42.45-10.1L42.45-10.1ZM96.4-6.4L96.4-6.4Q97.55-6.4 98.45-6.9L98.45-6.9 98.2-1.25Q95.85 0.7 92.85 0.7L92.85 0.7Q86.05 0.7 86.05-5L86.05-5Q86.05-6 86.25-7.15L86.25-7.15 87.3-13.3Q87.45-14.2 87.45-15.1L87.45-15.1Q87.45-17.5 84.82-17.5 82.2-17.5 80.7-15.45L80.7-15.45 78 0 69.5 0 71.85-13.3Q72-14.2 72-15.1L72-15.1Q72-17.5 69.3-17.5L69.3-17.5Q67.15-17.5 65.6-15.85L65.6-15.85 62.8 0 54.3 0 58.55-24.05 66.45-24.05 65.9-21.05Q68.9-24.75 73.5-24.75L73.5-24.75Q80-24.75 80.9-20.45L80.9-20.45Q83.9-24.75 88.92-24.75 93.95-24.75 95.45-22.5L95.45-22.5Q96.45-20.95 96.45-19.1 96.45-17.25 96.2-15.75L96.2-15.75 94.95-8.3Q94.9-8 94.9-7.75L94.9-7.75Q94.9-6.4 96.4-6.4ZM124.84-7.7L124.84-7.7Q124.84-6.4 126.17-6.4 127.49-6.4 128.39-6.9L128.39-6.9 128.14-1.25Q125.74 0.7 122.74 0.7L122.74 0.7Q117.24 0.7 116.64-3.3L116.64-3.3Q114.14 0.7 109.29 0.7L109.29 0.7Q101.09 0.7 101.09-6.35L101.09-6.35Q101.09-7.55 101.34-9L101.34-9 102.39-14.85Q103.19-19.35 106.07-22.03 108.94-24.7 113.57-24.7 118.19-24.7 119.84-22.55L119.84-22.55 120.09-24.05 127.69-24.05 124.89-8.3Q124.84-8 124.84-7.7ZM110.69-13.85L110.04-10.1Q109.94-9.65 109.94-8.85 109.94-8.05 110.69-7.28 111.44-6.5 113.22-6.5 114.99-6.5 116.29-7.9L116.29-7.9 117.79-16.3Q117.24-17.55 115.19-17.55L115.19-17.55Q111.34-17.55 110.69-13.85L110.69-13.85ZM155.74-18.95L155.74-18.95Q155.74-17.25 155.17-15.65 154.59-14.05 154.04-13.3L154.04-13.3 153.49-12.6 145.94-12.6Q147.19-13.75 147.19-15.45L147.19-15.45Q147.19-16.35 146.62-16.93 146.04-17.5 145.04-17.5L145.04-17.5Q143.34-17.5 142.09-15.8L142.09-15.8 139.29 0 130.79 0 135.04-24.05 142.94-24.05 142.34-20.7Q145.19-24.75 149.24-24.75L149.24-24.75Q152.49-24.75 154.12-23.2 155.74-21.65 155.74-18.95ZM181.44-18.95L181.44-18.95Q181.44-17.25 180.86-15.65 180.29-14.05 179.74-13.3L179.74-13.3 179.19-12.6 171.64-12.6Q172.89-13.75 172.89-15.45L172.89-15.45Q172.89-16.35 172.31-16.93 171.74-17.5 170.74-17.5L170.74-17.5Q169.04-17.5 167.79-15.8L167.79-15.8 164.99 0 156.49 0 160.74-24.05 168.64-24.05 168.04-20.7Q170.89-24.75 174.94-24.75L174.94-24.75Q178.19-24.75 179.81-23.2 181.44-21.65 181.44-18.95Z" opacity="1" transform="matrix(1,0,0,1,0,0)" fill="#000000" class="wordmark-text-0" data-fill-palette-color="primary" id="text-0"></path></svg></g></svg></g></svg></g></svg></g><g transform="matrix(1,0,0,1,408.64530924487156,0)"><svg viewBox="0 0 76.83617723280861 76.83617723280861" height="76.83617723280861" width="76.83617723280861"><g><svg xmlns="http://www.w3.org/2000/svg" data-name="Layer 1" viewBox="22 22 56 56" x="0" y="0" height="76.83617723280861" width="76.83617723280861" class="icon-icon-0" data-fill-palette-color="accent" id="icon-0"><path d="M78 29a7 7 0 0 0-7-7H61v6H71a1 1 0 0 1 1 1V39h6Z" fill="#000000" data-fill-palette-color="accent"></path><path d="M78 71V61H72V71a1 1 0 0 1-1 1H61v6H71A7 7 0 0 0 78 71Z" fill="#000000" data-fill-palette-color="accent"></path><path d="M22 71a7 7 0 0 0 7 7H39V72H29a1 1 0 0 1-1-1V61H22Z" fill="#000000" data-fill-palette-color="accent"></path><path d="M28 29a1 1 0 0 1 1-1H39V22H29a7 7 0 0 0-7 7V39h6Z" fill="#000000" data-fill-palette-color="accent"></path><circle cx="58" cy="43" r="3.0" fill="#000000" data-fill-palette-color="accent"></circle><circle cx="58" cy="57" r="3.0" fill="#000000" data-fill-palette-color="accent"></circle><circle cx="69" cy="50" r="3.0" fill="#000000" data-fill-palette-color="accent"></circle><polygon points="42 53 49 53 49 47 42 47 42 40 36 40 36 47 29 47 29 53 36 53 36 60 42 60 42 53" fill="#000000" data-fill-palette-color="accent"></polygon></svg></g></svg></g></svg></g><defs></defs></svg><rect width="395.52" height="62.598153926756666" fill="none" stroke="none" visibility="hidden"></rect></g></svg></g></svg>