<svg xmlns="http://www.w3.org/2000/svg" version="1.1" xmlns:xlink="http://www.w3.org/1999/xlink" xmlns:svgjs="http://svgjs.dev/svgjs" width="2000" height="641" viewBox="0 0 2000 641"><g transform="matrix(1,0,0,1,-1.2121212121212466,1.0447646333053626)"><svg viewBox="0 0 396 127" data-background-color="#0718c4" preserveAspectRatio="xMidYMid meet" height="641" width="2000" xmlns="http://www.w3.org/2000/svg" xmlns:xlink="http://www.w3.org/1999/xlink"><g id="tight-bounds" transform="matrix(1,0,0,1,0.2400000000000091,-0.20699704903242377)"><svg viewBox="0 0 395.52 127.41399409806483" height="127.41399409806483" width="395.52"><g><svg viewBox="0 0 573.9861106285713 184.90559999999994" height="127.41399409806483" width="395.52"><g transform="matrix(1,0,0,1,178.46611062857139,57.138514285714265)"><svg viewBox="0 0 395.5199999999999 70.6285714285714" height="70.6285714285714" width="395.5199999999999"><g id="textblocktransform"><svg viewBox="0 0 395.5199999999999 70.6285714285714" height="70.6285714285714" width="395.5199999999999" id="textblock"><g><svg viewBox="0 0 395.5199999999999 70.6285714285714" height="70.6285714285714" width="395.5199999999999"><g transform="matrix(1,0,0,1,0,0)"><svg width="395.5199999999999" viewBox="0.7 -27.55 159.59 28.5" height="70.6285714285714" data-palette-color="#ffffff"><path d="M19.45-27.45Q20.85-27.45 22.1-27L22.1-27 19.6-18.4Q18.4-18.75 17.3-18.75L17.3-18.75Q15.05-18.75 13.68-16.95 12.3-15.15 11.1-11.75L11.1-11.75 9.45 0 0.7 0 4.4-26.65 12-26.65 12-21.8Q13.35-24.5 15.3-25.98 17.25-27.45 19.45-27.45L19.45-27.45ZM32.2 0.95Q26.8 0.95 23.8-2.08 20.8-5.1 20.8-10.5L20.8-10.5Q20.8-14.75 22.3-18.63 23.8-22.5 27.2-25.03 30.6-27.55 35.95-27.55L35.95-27.55Q41.3-27.55 44.35-24.53 47.4-21.5 47.4-16.25L47.4-16.25Q47.4-12.05 45.92-8.13 44.45-4.2 41.02-1.63 37.6 0.95 32.2 0.95L32.2 0.95ZM32.9-5.55Q36.05-5.55 37.25-9.15 38.45-12.75 38.45-16.85L38.45-16.85Q38.45-19.05 37.67-20.08 36.9-21.1 35.3-21.1L35.3-21.1Q32.15-21.1 30.95-17.57 29.75-14.05 29.75-10L29.75-10Q29.75-7.65 30.5-6.6 31.25-5.55 32.9-5.55L32.9-5.55ZM82.5-27.55Q85.3-27.55 86.87-25.88 88.45-24.2 88.45-21.2L88.45-21.2Q88.45-20.1 88.35-19.5L88.35-19.5 85.59 0 76.85 0 79.35-17.3Q79.45-18.3 79.45-18.55L79.45-18.55Q79.45-20.3 78.2-20.3L78.2-20.3Q76.1-20.3 73.75-14.55L73.75-14.55 71.75 0 63 0 65.45-17.3Q65.55-18.2 65.55-18.45L65.55-18.45Q65.55-19.5 65.22-19.9 64.9-20.3 64.25-20.3L64.25-20.3Q63.25-20.3 62.07-18.7 60.9-17.1 59.95-14.35L59.95-14.35 57.9 0 49.15 0 52.85-26.65 60.45-26.65 60.4-22.5Q61.95-24.9 64.07-26.23 66.2-27.55 68.6-27.55L68.6-27.55Q70.95-27.55 72.5-26.33 74.05-25.1 74.45-22.8L74.45-22.8Q76-25 78.15-26.28 80.3-27.55 82.5-27.55L82.5-27.55ZM106.24-27.55Q109.14-27.55 112.07-26.83 114.99-26.1 117.59-24.6L117.59-24.6 115.19-8.1Q115.09-7.2 115.09-6.95L115.09-6.95Q115.09-6.15 115.37-5.7 115.64-5.25 116.39-4.95L116.39-4.95 113.89 0.75Q111.49 0.6 109.72-0.5 107.94-1.6 107.29-3.65L107.29-3.65Q104.09 0.95 99.34 0.95L99.34 0.95Q95.19 0.95 92.92-1.93 90.64-4.8 90.64-9.8L90.64-9.8Q90.64-14.05 92.24-18.1 93.84-22.15 97.34-24.85 100.84-27.55 106.24-27.55L106.24-27.55ZM105.94-21.35Q102.74-21.35 101.22-17.8 99.69-14.25 99.69-9.8L99.69-9.8Q99.69-7.4 100.37-6.48 101.04-5.55 102.24-5.55L102.24-5.55Q104.64-5.55 106.69-8.9L106.69-8.9 108.44-20.95Q107.09-21.35 105.94-21.35L105.94-21.35ZM137.84-27.45Q139.24-27.45 140.49-27L140.49-27 137.99-18.4Q136.79-18.75 135.69-18.75L135.69-18.75Q133.44-18.75 132.07-16.95 130.69-15.15 129.49-11.75L129.49-11.75 127.84 0 119.09 0 122.79-26.65 130.39-26.65 130.39-21.8Q131.74-24.5 133.69-25.98 135.64-27.45 137.84-27.45L137.84-27.45ZM157.64-27.45Q159.04-27.45 160.29-27L160.29-27 157.79-18.4Q156.59-18.75 155.49-18.75L155.49-18.75Q153.24-18.75 151.86-16.95 150.49-15.15 149.29-11.75L149.29-11.75 147.64 0 138.89 0 142.59-26.65 150.19-26.65 150.19-21.8Q151.54-24.5 153.49-25.98 155.44-27.45 157.64-27.45L157.64-27.45Z" opacity="1" transform="matrix(1,0,0,1,0,0)" fill="#ffffff" class="wordmark-text-0" data-fill-palette-color="primary" id="text-0"></path></svg></g></svg></g></svg></g></svg></g><g><svg viewBox="0 0 161.79239999999996 184.90559999999994" height="184.90559999999994" width="161.79239999999996"><g><svg xmlns="http://www.w3.org/2000/svg" xmlns:xlink="http://www.w3.org/1999/xlink" version="1.1" x="0" y="0" viewBox="17 13 63 72" enable-background="new 0 0 100 100" xml:space="preserve" height="184.90559999999994" width="161.79239999999996" class="icon-icon-0" data-fill-palette-color="accent" id="icon-0"><g fill="#ffffff" data-fill-palette-color="accent"><path d="M53 58V39.216c5.24-1.855 9-6.84 9-12.716C62 19.044 55.957 13 48.5 13 41.045 13 35 19.044 35 26.5c0 5.875 3.761 10.86 9 12.715V58H17v27h63V58H53zM30.5 76c-2.486 0-4.5-2.015-4.5-4.5s2.014-4.5 4.5-4.5c2.484 0 4.5 2.015 4.5 4.5S32.984 76 30.5 76z" fill="#ffffff" data-fill-palette-color="accent"></path></g></svg></g></svg></g></svg></g><defs></defs></svg><rect width="395.52" height="127.41399409806483" fill="none" stroke="none" visibility="hidden"></rect></g></svg></g></svg>