<svg width="316" height="316" viewBox="0 0 316 316" fill="none" xmlns="http://www.w3.org/2000/svg">
<g clip-path="url(#clip0_4_44)">
<g clip-path="url(#clip1_4_44)">
<path d="M316.005 39.4965C316.005 29.0214 311.844 18.9753 304.437 11.5683C297.03 4.16123 286.984 7.62939e-06 276.509 7.62939e-06H220.085V33.8541H276.509C278.005 33.8541 279.44 34.4486 280.498 35.5067C281.556 36.5649 282.151 38 282.151 39.4965V95.92H316.005V39.4965Z" fill="black"/>
<path d="M316.005 276.475V220.052H282.151V276.475C282.151 277.972 281.556 279.407 280.498 280.465C279.44 281.523 278.005 282.118 276.509 282.118H220.085V315.972H276.509C286.984 315.972 297.03 311.81 304.437 304.403C311.844 296.996 316.005 286.95 316.005 276.475Z" fill="black"/>
<path d="M0.0334473 276.475C0.0334473 286.95 4.19467 296.996 11.6017 304.403C19.0087 311.81 29.0548 315.972 39.5299 315.972H95.9534V282.118H39.5299C38.0335 282.118 36.5983 281.523 35.5402 280.465C34.482 279.407 33.8876 277.972 33.8876 276.475V220.052H0.0334473V276.475Z" fill="black"/>
<path d="M33.8876 39.4965C33.8876 38 34.482 36.5649 35.5402 35.5067C36.5983 34.4486 38.0335 33.8541 39.5299 33.8541H95.9534V7.62939e-06H39.5299C29.0548 7.62939e-06 19.0087 4.16123 11.6017 11.5683C4.19467 18.9753 0.0334473 29.0214 0.0334473 39.4965V95.92H33.8876V39.4965Z" fill="black"/>
<path d="M203.158 135.416C212.507 135.416 220.085 127.838 220.085 118.489C220.085 109.141 212.507 101.562 203.158 101.562C193.81 101.562 186.231 109.141 186.231 118.489C186.231 127.838 193.81 135.416 203.158 135.416Z" fill="black"/>
<path d="M203.158 214.409C212.507 214.409 220.085 206.831 220.085 197.482C220.085 188.134 212.507 180.555 203.158 180.555C193.81 180.555 186.231 188.134 186.231 197.482C186.231 206.831 193.81 214.409 203.158 214.409Z" fill="black"/>
<path d="M265.224 174.913C274.572 174.913 282.151 167.334 282.151 157.986C282.151 148.637 274.572 141.059 265.224 141.059C255.875 141.059 248.297 148.637 248.297 157.986C248.297 167.334 255.875 174.913 265.224 174.913Z" fill="black"/>
<path d="M112.88 174.913H152.377V141.059H112.88V101.562H79.0264V141.059H39.5299V174.913H79.0264V214.409H112.88V174.913Z" fill="black"/>
</g>
</g>
<defs>
<clipPath id="clip0_4_44">
<rect width="315.972" height="315.972" fill="white" transform="translate(0.0334473 7.62939e-06)"/>
</clipPath>
<clipPath id="clip1_4_44">
<rect width="315.972" height="315.972" fill="white" transform="translate(0.0334473 7.62939e-06)"/>
</clipPath>
</defs>
</svg>
