<svg width="42" height="8" viewBox="0 0 42 8" fill="none" xmlns="http://www.w3.org/2000/svg">
<path d="M4.17383 0.542969C4.37305 0.542969 4.58008 0.556641 4.79492 0.583984C5.01367 0.611328 5.17773 0.648438 5.28711 0.695312L5.14062 1.75586C4.92969 1.70898 4.72852 1.67578 4.53711 1.65625C4.34961 1.63281 4.15234 1.62109 3.94531 1.62109C3.67969 1.62109 3.43945 1.6543 3.22461 1.7207C3.00977 1.7832 2.82227 1.87695 2.66211 2.00195C2.51758 2.11133 2.39062 2.24609 2.28125 2.40625C2.17578 2.5625 2.08789 2.73828 2.01758 2.93359V7H0.927734V0.660156H1.95898L2.00586 1.50977L2.01172 1.66797C2.26953 1.32031 2.57812 1.04688 2.9375 0.847656C3.30078 0.644531 3.71289 0.542969 4.17383 0.542969ZM6.92188 3.77148C6.92188 3.31445 6.98828 2.89062 7.12109 2.5C7.25391 2.10547 7.44531 1.76367 7.69531 1.47461C7.94141 1.18555 8.24219 0.958984 8.59766 0.794922C8.95312 0.626953 9.35352 0.542969 9.79883 0.542969C10.248 0.542969 10.6504 0.626953 11.0059 0.794922C11.3652 0.958984 11.6699 1.18555 11.9199 1.47461C12.166 1.76367 12.3555 2.10547 12.4883 2.5C12.6211 2.89062 12.6875 3.31445 12.6875 3.77148V3.90039C12.6875 4.35742 12.6211 4.78125 12.4883 5.17188C12.3555 5.5625 12.166 5.90234 11.9199 6.19141C11.6699 6.48047 11.3672 6.70703 11.0117 6.87109C10.6562 7.03516 10.2559 7.11719 9.81055 7.11719C9.36133 7.11719 8.95703 7.03516 8.59766 6.87109C8.24219 6.70703 7.94141 6.48047 7.69531 6.19141C7.44531 5.90234 7.25391 5.5625 7.12109 5.17188C6.98828 4.78125 6.92188 4.35742 6.92188 3.90039V3.77148ZM8.00586 3.90039C8.00586 4.21289 8.04297 4.51172 8.11719 4.79688C8.19141 5.07812 8.30469 5.32617 8.45703 5.54102C8.60547 5.75586 8.79297 5.92578 9.01953 6.05078C9.24609 6.17578 9.50977 6.23828 9.81055 6.23828C10.1074 6.23828 10.3672 6.17578 10.5898 6.05078C10.8164 5.92578 11.0059 5.75586 11.1582 5.54102C11.3066 5.32617 11.418 5.07812 11.4922 4.79688C11.5664 4.51172 11.6035 4.21289 11.6035 3.90039V3.77148C11.6035 3.46289 11.5645 3.16797 11.4863 2.88672C11.4121 2.60156 11.3008 2.35156 11.1523 2.13672C11 1.92188 10.8105 1.75195 10.584 1.62695C10.3613 1.49805 10.0996 1.43359 9.79883 1.43359C9.49805 1.43359 9.23633 1.49805 9.01367 1.62695C8.79102 1.75195 8.60547 1.92188 8.45703 2.13672C8.30469 2.35156 8.19141 2.60156 8.11719 2.88672C8.04297 3.16797 8.00586 3.46289 8.00586 3.77148V3.90039ZM14.9316 0.660156L14.9609 1.25781C15.0898 1.03516 15.2578 0.861328 15.4648 0.736328C15.6758 0.611328 15.9297 0.546875 16.2266 0.542969C16.3945 0.542969 16.5449 0.5625 16.6777 0.601562C16.8145 0.636719 16.9336 0.689453 17.0352 0.759766C17.1094 0.814453 17.1758 0.880859 17.2344 0.958984C17.2969 1.03711 17.3496 1.125 17.3926 1.22266C17.4473 1.13281 17.5117 1.04883 17.5859 0.970703C17.6602 0.892578 17.7402 0.824219 17.8262 0.765625C17.9355 0.699219 18.0566 0.646484 18.1895 0.607422C18.3262 0.568359 18.4746 0.546875 18.6348 0.542969C18.8535 0.542969 19.0508 0.576172 19.2266 0.642578C19.4023 0.705078 19.5508 0.798828 19.6719 0.923828C19.8047 1.06445 19.9062 1.24805 19.9766 1.47461C20.0469 1.69727 20.082 1.96094 20.082 2.26562V7H19.0508V2.25391C19.0508 2.12109 19.0352 2.00391 19.0039 1.90234C18.9727 1.80078 18.9277 1.7168 18.8691 1.65039C18.8066 1.58789 18.7285 1.54102 18.6348 1.50977C18.5449 1.47852 18.4395 1.46289 18.3184 1.46289C18.1895 1.46289 18.0781 1.48047 17.9844 1.51562C17.8906 1.55078 17.8125 1.59766 17.75 1.65625C17.6875 1.71875 17.6387 1.79102 17.6035 1.87305C17.5684 1.95117 17.5449 2.03906 17.5332 2.13672C17.5332 2.15625 17.5332 2.17578 17.5332 2.19531C17.5332 2.21094 17.5332 2.23047 17.5332 2.25391V7H16.502V2.24805C16.502 2.11523 16.4863 1.99805 16.4551 1.89648C16.4277 1.79492 16.3828 1.71094 16.3203 1.64453C16.2617 1.58203 16.1875 1.53711 16.0977 1.50977C16.0117 1.47852 15.9102 1.46289 15.793 1.46289C15.6641 1.46289 15.5508 1.47852 15.4531 1.50977C15.3594 1.53711 15.2793 1.57812 15.2129 1.63281C15.1621 1.67578 15.1172 1.72461 15.0781 1.7793C15.043 1.83398 15.0137 1.89258 14.9902 1.95508V7H13.959V0.660156H14.9316ZM25.8066 7C25.7637 6.91797 25.7285 6.81641 25.7012 6.69531C25.6777 6.57031 25.6602 6.44141 25.6484 6.30859C25.5391 6.41797 25.416 6.52148 25.2793 6.61914C25.1465 6.7168 25 6.80273 24.8398 6.87695C24.6758 6.95117 24.502 7.00977 24.3184 7.05273C24.1348 7.0957 23.9395 7.11719 23.7324 7.11719C23.3965 7.11719 23.0918 7.06836 22.8184 6.9707C22.5488 6.87305 22.3203 6.74023 22.1328 6.57227C21.9414 6.4082 21.793 6.21289 21.6875 5.98633C21.5859 5.75586 21.5352 5.50781 21.5352 5.24219C21.5352 4.89453 21.6035 4.58984 21.7402 4.32812C21.8809 4.06641 22.0781 3.84766 22.332 3.67188C22.5859 3.5 22.8906 3.37109 23.2461 3.28516C23.6055 3.19922 24.0059 3.15625 24.4473 3.15625H25.6309V2.6582C25.6309 2.4668 25.5957 2.29492 25.5254 2.14258C25.4551 1.99023 25.3555 1.85938 25.2266 1.75C25.0977 1.64453 24.9395 1.5625 24.752 1.50391C24.5684 1.44531 24.3613 1.41602 24.1309 1.41602C23.916 1.41602 23.7227 1.44336 23.5508 1.49805C23.3828 1.55273 23.2402 1.625 23.123 1.71484C23.0059 1.80469 22.9141 1.91211 22.8477 2.03711C22.7852 2.1582 22.7539 2.28516 22.7539 2.41797H21.6641C21.668 2.1875 21.7266 1.96094 21.8398 1.73828C21.957 1.51562 22.125 1.31445 22.3438 1.13477C22.5586 0.958984 22.8203 0.816406 23.1289 0.707031C23.4414 0.597656 23.7949 0.542969 24.1895 0.542969C24.5488 0.542969 24.8828 0.587891 25.1914 0.677734C25.5 0.763672 25.7676 0.894531 25.9941 1.07031C26.2168 1.25 26.3926 1.47266 26.5215 1.73828C26.6504 2.00391 26.7148 2.31445 26.7148 2.66992V5.61719C26.7148 5.82812 26.7344 6.05273 26.7734 6.29102C26.8125 6.52539 26.8672 6.73047 26.9375 6.90625V7H25.8066ZM23.8906 6.17383C24.1016 6.17383 24.2988 6.14648 24.4824 6.0918C24.666 6.03711 24.834 5.96484 24.9863 5.875C25.1348 5.78516 25.2637 5.68359 25.373 5.57031C25.4824 5.45312 25.5684 5.33203 25.6309 5.20703V3.92383H24.623C24.248 3.92383 23.9199 3.95703 23.6387 4.02344C23.3613 4.08594 23.1406 4.18359 22.9766 4.31641C22.8594 4.41016 22.7695 4.52148 22.707 4.65039C22.6484 4.7793 22.6191 4.92578 22.6191 5.08984C22.6191 5.24609 22.6445 5.39062 22.6953 5.52344C22.75 5.65625 22.8301 5.76953 22.9355 5.86328C23.041 5.96094 23.1738 6.03711 23.334 6.0918C23.4941 6.14648 23.6797 6.17383 23.8906 6.17383ZM33.002 0.542969C33.2012 0.542969 33.4082 0.556641 33.623 0.583984C33.8418 0.611328 34.0059 0.648438 34.1152 0.695312L33.9688 1.75586C33.7578 1.70898 33.5566 1.67578 33.3652 1.65625C33.1777 1.63281 32.9805 1.62109 32.7734 1.62109C32.5078 1.62109 32.2676 1.6543 32.0527 1.7207C31.8379 1.7832 31.6504 1.87695 31.4902 2.00195C31.3457 2.11133 31.2188 2.24609 31.1094 2.40625C31.0039 2.5625 30.916 2.73828 30.8457 2.93359V7H29.7559V0.660156H30.7871L30.834 1.50977L30.8398 1.66797C31.0977 1.32031 31.4062 1.04688 31.7656 0.847656C32.1289 0.644531 32.541 0.542969 33.002 0.542969ZM40.209 0.542969C40.4082 0.542969 40.6152 0.556641 40.8301 0.583984C41.0488 0.611328 41.2129 0.648438 41.3223 0.695312L41.1758 1.75586C40.9648 1.70898 40.7637 1.67578 40.5723 1.65625C40.3848 1.63281 40.1875 1.62109 39.9805 1.62109C39.7148 1.62109 39.4746 1.6543 39.2598 1.7207C39.0449 1.7832 38.8574 1.87695 38.6973 2.00195C38.5527 2.11133 38.4258 2.24609 38.3164 2.40625C38.2109 2.5625 38.123 2.73828 38.0527 2.93359V7H36.9629V0.660156H37.9941L38.041 1.50977L38.0469 1.66797C38.3047 1.32031 38.6133 1.04688 38.9727 0.847656C39.3359 0.644531 39.748 0.542969 40.209 0.542969Z" fill="black"/>
</svg>
